<?xml version="1.0" encoding="utf-8"?>
<!-- Generator: Adobe Illustrator 27.0.0, SVG Export Plug-In . SVG Version: 6.00 Build 0)  -->
<svg version="1.1" id="Layer_1" xmlns="http://www.w3.org/2000/svg" xmlns:xlink="http://www.w3.org/1999/xlink" x="0px" y="0px"
	 viewBox="0 0 144 144" style="enable-background:new 0 0 144 144;" xml:space="preserve">
<style type="text/css">
	.st0{fill:#1E40AF;}
</style>
<g>
	<path class="st0" d="M119.01,29.1c0,4.45,0,8.57,0,13c1.8,0,3.51-0.05,5.21,0.01c5.74,0.21,8.63,5.5,5.75,10.49
		c-3.46,6.02-8.23,9.7-15.63,9.05c-2.71-0.24-5.46-0.04-8.08-0.04c-0.19,0.29-0.3,0.41-0.35,0.54c-1.15,2.98,0.02,4.96,2.16,7.24
		c8.23,8.8,12.26,19.45,12.72,31.46c0.07,1.93-0.24,3.64-2.37,4.32c-2.57,0.82-4.55-0.69-4.65-3.6c-0.21-6.17-1.23-12.21-4.25-17.61
		c-2.19-3.92-5.12-7.42-7.73-11.11c-0.74-1.05-1.62-1.33-2.8-0.58c-0.51,0.32-1.19,0.61-1.77,0.57c-3.46-0.26-4.26,2.23-5.28,4.73
		c-2.97,7.22-5.77,9.03-13.58,9.03c-4.7,0-9.4-0.03-14.1,0.01c-5.67,0.04-9.53-2.53-11.58-7.81c-0.06-0.15-0.17-0.28-0.19-0.43
		c-0.43-5.15-4.87-5.22-8.34-6.43c-0.43-0.15-1.27,0.42-1.71,0.86C35.5,79.86,31.51,88.31,30.6,98.18c-0.1,1.09-0.12,2.19-0.21,3.28
		c-0.2,2.68-1.43,3.97-3.66,3.9c-2.22-0.07-3.41-1.5-3.36-4.16c0.16-9.38,2.75-18.04,7.96-25.84c1.68-2.52,3.6-4.95,5.74-7.09
		c1.51-1.51,2.11-2.87,1.32-4.83c-0.2-0.5-0.22-1.06-0.37-1.81c-3.28,0-6.55-0.05-9.82,0.01c-6.88,0.12-11.3-3.33-14.74-10.44
		c-1.89-3.91,1.06-8.57,5.41-9c1.93-0.19,3.89-0.03,6.03-0.03c0-4.43,0-8.59,0-13.07c-1.76,0-3.53,0-5.3,0c-4.47,0-8.93,0.01-13.4,0
		c-3.16-0.01-4.77-1.25-4.74-3.61c0.03-2.27,1.56-3.42,4.61-3.43c5.48-0.01,10.97,0,16.45,0c0.76,0,1.53,0,2.35,0
		c0.61-3-0.85-7.4,3.95-7.26c4.44,0.13,2.94,4.3,3.51,7.26c3.13,0,6.23,0,9.34,0c3.37,0,6.74-0.02,10.11,0.01
		c2.55,0.02,4.14,1.4,4.13,3.48c-0.01,2.06-1.62,3.51-4.15,3.53c-6.03,0.05-12.06,0.02-18.1,0.02c-0.39,0-0.77,0.06-1.34,0.12
		c0,4.19,0,8.36,0,12.85c2.21,0,4.38,0.09,6.54-0.06c0.53-0.04,1.09-0.77,1.48-1.29c2.47-3.29,5.74-4.99,9.87-5
		c7.36-0.02,14.73-0.02,22.09,0c2.68,0.01,4,1.22,3.99,3.52c-0.01,2.27-1.36,3.49-4.03,3.5c-7.13,0.03-14.26,0.05-21.39-0.01
		c-2.78-0.03-4.69,1.02-5.53,3.72c-0.69,2.2-2.37,2.69-4.41,2.69c-5.88-0.01-11.75,0-17.63,0c-0.85,0-1.7,0-2.59,0
		c0.77,3.23,3.37,5.38,6.59,5.43c4.39,0.07,8.77,0.01,13.16,0.03c3.65,0.02,4.75,1.13,4.78,4.76c0.01,0.78-0.04,1.57,0.02,2.34
		c0.21,2.76,1.93,4.56,4.68,4.57c14.73,0.05,29.46,0.05,44.18,0c2.88-0.01,4.54-1.88,4.66-4.8c0.29-6.78,0.4-6.88,7.16-6.88
		c3.29,0,6.58-0.1,9.87,0.02c3.8,0.14,6.13-1.77,7.89-5.32c-1-0.06-1.81-0.15-2.61-0.15c-5.88-0.01-11.75-0.05-17.63,0.01
		c-2.46,0.03-4.15-0.69-4.99-3.26c-0.86-2.62-3.18-3.16-5.69-3.23c-1.06-0.03-2.57-0.02-3.05-0.65c-0.79-1.05-1.44-2.74-1.14-3.9
		c0.26-0.99,1.88-2.18,3-2.29c4.95-0.45,9.28,0.95,12.35,5.19c0.33,0.45,0.92,0.98,1.42,1.01c2.08,0.11,4.18,0.05,6.35,0.05
		c0-4.44,0-8.55,0-12.97c-2.03,0-3.96,0-5.89,0c-4.54,0-9.09,0.03-13.63-0.02c-2.52-0.03-4.14-1.48-4.13-3.55
		c0-2.07,1.6-3.45,4.15-3.46c6.42-0.02,12.83-0.01,19.63-0.01c0-1.29-0.04-2.43,0.01-3.57c0.09-2.25,1.39-3.73,3.31-3.82
		c1.99-0.1,3.54,1.43,3.7,3.72c0.08,1.08,0.01,2.18,0.01,3.55c0.96,0.04,1.78,0.11,2.6,0.11c5.64,0.01,11.28-0.01,16.92,0.01
		c2.63,0.01,4.11,1.28,4.13,3.44c0.02,2.15-1.48,3.55-4.06,3.57C132.07,29.13,125.66,29.1,119.01,29.1z M58.39,73.42
		c1.14,5.18,2.3,6.15,7.12,6.15c4.62,0,9.24,0.01,13.86,0c4.05-0.01,5.98-1.94,6.17-6.15C76.54,73.42,67.55,73.42,58.39,73.42z"/>
	<path class="st0" d="M91.05,101.44c-1.94-0.02-3.35-1.48-3.35-3.47c-0.01-1.95,1.45-3.49,3.33-3.53c1.97-0.04,3.53,1.59,3.48,3.63
		C94.45,100.03,92.98,101.46,91.05,101.44z"/>
	<path class="st0" d="M56.29,98.03c-0.04,2-1.45,3.41-3.41,3.41c-1.94-0.01-3.37-1.46-3.4-3.43c-0.02-2.03,1.57-3.64,3.54-3.56
		C54.91,94.51,56.33,96.07,56.29,98.03z"/>
	<path class="st0" d="M97.62,106.77c1.9-0.02,3.39,1.46,3.45,3.41c0.06,2.05-1.45,3.58-3.49,3.55c-1.92-0.03-3.34-1.52-3.33-3.48
		C94.26,108.29,95.73,106.78,97.62,106.77z"/>
	<path class="st0" d="M46.28,113.72c-1.94-0.03-3.36-1.49-3.35-3.45c0.01-2.05,1.59-3.59,3.59-3.49c1.9,0.09,3.29,1.65,3.23,3.61
		C49.68,112.37,48.24,113.75,46.28,113.72z"/>
	<path class="st0" d="M43.2,122.53c0.03,1.94-1.4,3.49-3.29,3.56c-1.98,0.07-3.56-1.51-3.54-3.55c0.03-1.95,1.48-3.4,3.41-3.4
		C41.73,119.14,43.16,120.55,43.2,122.53z"/>
	<path class="st0" d="M75.35,97.96c0,2.05-1.32,3.44-3.29,3.48c-1.98,0.03-3.35-1.32-3.4-3.35c-0.05-2.12,1.4-3.67,3.4-3.64
		C73.96,94.47,75.34,95.96,75.35,97.96z"/>
	<path class="st0" d="M75.34,112.02c-0.05,1.99-1.49,3.44-3.4,3.41c-1.99-0.03-3.39-1.63-3.28-3.75c0.1-2.01,1.52-3.33,3.51-3.24
		C74.12,108.52,75.4,109.96,75.34,112.02z"/>
	<path class="st0" d="M104.22,119.14c1.94,0,3.38,1.43,3.41,3.4c0.03,2.03-1.56,3.62-3.53,3.55c-1.89-0.07-3.32-1.62-3.29-3.56
		C100.83,120.58,102.28,119.14,104.22,119.14z"/>
	<path class="st0" d="M75.34,125.92c-0.03,2.03-1.4,3.42-3.35,3.41c-2.04,0-3.42-1.52-3.33-3.67c0.08-2.04,1.44-3.32,3.47-3.26
		C74.12,122.46,75.38,123.83,75.34,125.92z"/>
</g>
</svg>
