<?xml version="1.0" encoding="utf-8"?>
<!-- Generator: Adobe Illustrator 27.0.0, SVG Export Plug-In . SVG Version: 6.00 Build 0)  -->
<svg version="1.1" id="Layer_1" xmlns="http://www.w3.org/2000/svg" xmlns:xlink="http://www.w3.org/1999/xlink" x="0px" y="0px"
	 viewBox="0 0 627 505" style="enable-background:new 0 0 627 505;" xml:space="preserve">
<style type="text/css">
	.st0{fill:#FFFFFF;}
</style>
<g>
	<path class="st0" d="M41.5,417.9c-0.7,0.5-1.6,1-2.8,1.5s-2.6,1-4.1,1.4c-1.6,0.4-3.3,0.6-5.2,0.6c-3.1,0-6-0.6-8.6-1.7
		s-4.8-2.6-6.6-4.5c-1.8-1.9-3.2-4.1-4.1-6.6s-1.4-5.1-1.4-8c0-3.1,0.5-5.9,1.5-8.5c1-2.6,2.4-4.9,4.2-6.8c1.8-1.9,4-3.4,6.5-4.5
		s5.2-1.6,8.2-1.6c2.5,0,4.7,0.3,6.7,1c2,0.7,3.7,1.4,5.2,2.3l-2.2,5.2c-1.1-0.8-2.5-1.5-4.2-2.2s-3.4-1-5.4-1c-2,0-3.9,0.4-5.7,1.2
		c-1.8,0.8-3.4,1.9-4.7,3.4c-1.4,1.4-2.4,3.1-3.2,5s-1.2,4-1.2,6.2c0,2.2,0.4,4.3,1.1,6.2c0.7,1.9,1.7,3.6,3,5
		c1.3,1.4,2.9,2.5,4.8,3.3c1.9,0.8,4,1.2,6.3,1.2c2.1,0,3.9-0.3,5.6-1c1.6-0.6,3-1.4,4-2.2L41.5,417.9z"/>
	<path class="st0" d="M60.3,379.8c2.1,0,4,0.3,5.8,0.8s3.3,1.4,4.6,2.5c1.3,1.1,2.3,2.4,3.1,4s1.1,3.4,1.1,5.5
		c0,1.6-0.2,3.2-0.7,4.8c-0.5,1.6-1.2,3-2.3,4.2c-1.1,1.3-2.5,2.3-4.3,3.1s-4,1.2-6.6,1.2h-6.1V421h-5.5v-41.2H60.3z M60.9,400.5
		c1.6,0,3-0.2,4.1-0.7c1.1-0.5,1.9-1.1,2.5-1.9s1-1.6,1.3-2.5c0.3-0.9,0.4-1.7,0.4-2.6c0-0.8-0.1-1.7-0.4-2.6s-0.7-1.7-1.4-2.5
		c-0.6-0.8-1.4-1.4-2.4-1.9c-1-0.5-2.2-0.7-3.7-0.7h-6.4v15.4L60.9,400.5L60.9,400.5z M67.7,403.7L78.5,421h-6.4l-11-17.2
		L67.7,403.7z"/>
	<path class="st0" d="M82.1,400.4c0-2.9,0.5-5.5,1.6-8.1c1.1-2.5,2.6-4.8,4.5-6.8c1.9-2,4.2-3.5,6.7-4.6s5.2-1.6,8.2-1.6
		c2.8,0,5.6,0.5,8.1,1.6c2.5,1.1,4.8,2.6,6.8,4.6c2,2,3.5,4.2,4.6,6.8c1.1,2.5,1.7,5.3,1.7,8.1c0,2.9-0.6,5.6-1.7,8.1
		c-1.1,2.5-2.6,4.8-4.6,6.7c-1.9,1.9-4.2,3.4-6.7,4.5s-5.3,1.6-8.2,1.6c-2.9,0-5.7-0.5-8.2-1.6c-2.5-1.1-4.8-2.6-6.7-4.5
		c-1.9-1.9-3.4-4.1-4.5-6.7C82.6,406.2,82.1,403.4,82.1,400.4z M87.8,400.4c0,2.2,0.4,4.2,1.2,6.1s1.9,3.5,3.3,5
		c1.4,1.4,3.1,2.6,4.9,3.4c1.8,0.8,3.8,1.2,6,1.2s4.2-0.4,6-1.2c1.8-0.8,3.5-1.9,4.8-3.4c1.4-1.4,2.5-3.1,3.3-5
		c0.8-1.9,1.2-3.9,1.2-6.1c0-2.2-0.4-4.3-1.2-6.2c-0.8-1.9-1.9-3.6-3.3-5c-1.4-1.5-3-2.6-4.9-3.4c-1.9-0.8-3.9-1.2-6-1.2
		c-2.2,0-4.2,0.4-6.1,1.2c-1.9,0.8-3.5,2-4.9,3.4c-1.4,1.4-2.5,3.1-3.2,5C88.1,396.3,87.8,398.3,87.8,400.4z"/>
	<path class="st0" d="M143,379.8c3,0,5.6,0.5,7.7,1.5c2.1,1,3.8,2.5,4.9,4.4c1.2,1.9,1.7,4.2,1.7,6.9c0,1.6-0.2,3.2-0.7,4.8
		c-0.5,1.6-1.3,3-2.4,4.3c-1.1,1.3-2.5,2.3-4.2,3.1s-3.9,1.2-6.4,1.2h-6.1V421H132v-41.2H143z M143.6,400.5c1.6,0,3-0.3,4.1-0.8
		c1.1-0.5,1.9-1.2,2.5-2c0.6-0.8,1-1.7,1.3-2.6c0.3-0.9,0.4-1.7,0.4-2.5c0-0.8-0.1-1.7-0.4-2.6c-0.3-0.9-0.7-1.7-1.3-2.5
		c-0.6-0.7-1.4-1.4-2.4-1.8c-1-0.5-2.2-0.7-3.7-0.7h-6.4v15.4L143.6,400.5L143.6,400.5z"/>
	<path class="st0" d="M202.4,387.2c-1.4-0.7-2.9-1.4-4.6-1.9s-3.3-0.8-4.9-0.8c-2.2,0-4,0.5-5.3,1.5s-2,2.4-2,4.1
		c0,1.3,0.4,2.4,1.3,3.3c0.9,0.9,2,1.7,3.3,2.3c1.4,0.6,2.8,1.2,4.3,1.8c1.2,0.5,2.5,1,3.8,1.6s2.4,1.4,3.4,2.3s1.8,2,2.4,3.4
		s0.9,3,0.9,4.9c0,2.2-0.5,4.2-1.6,6s-2.6,3.2-4.6,4.2c-2,1-4.4,1.5-7.2,1.5c-1.8,0-3.5-0.2-5.2-0.6c-1.6-0.4-3.2-0.9-4.6-1.6
		s-2.7-1.4-3.8-2.1l2.4-4.3c0.9,0.6,2,1.3,3.1,1.9c1.2,0.6,2.4,1,3.7,1.4s2.6,0.5,3.8,0.5c1.3,0,2.6-0.2,3.9-0.7
		c1.2-0.5,2.3-1.2,3.1-2.2c0.8-1,1.2-2.3,1.2-3.9c0-1.4-0.4-2.5-1.1-3.5s-1.7-1.8-2.9-2.4s-2.5-1.3-3.9-1.8c-1.3-0.5-2.6-1-4-1.6
		c-1.3-0.6-2.5-1.3-3.6-2.2s-2-1.9-2.7-3.2c-0.7-1.2-1.1-2.8-1.1-4.6c0-2.2,0.5-4.1,1.6-5.7c1-1.6,2.5-2.9,4.3-3.8s3.9-1.4,6.3-1.5
		c2.7,0,5,0.3,7,1s3.8,1.4,5.4,2.3L202.4,387.2z"/>
	<path class="st0" d="M212.9,379.8h26.8v5.3h-21.3v12.5h19v5.4h-19v12.7h22.1v5.3h-27.6V379.8z"/>
	<path class="st0" d="M280.9,417.5c-0.6,0.5-1.4,1-2.4,1.5c-1,0.5-2.2,0.9-3.4,1.3c-1.2,0.4-2.5,0.7-3.8,0.9s-2.5,0.3-3.7,0.3
		c-3.3,0-6.3-0.5-9-1.5s-4.9-2.5-6.8-4.3c-1.9-1.8-3.3-4-4.3-6.4c-1-2.5-1.5-5.1-1.5-8c0-3.5,0.6-6.6,1.7-9.3s2.6-5,4.6-6.9
		s4.2-3.3,6.8-4.3c2.6-1,5.2-1.5,8.1-1.5c2.4,0,4.7,0.3,6.7,0.8c2,0.5,3.9,1.3,5.4,2.2l-1.8,5.1c-0.8-0.4-1.8-0.8-2.9-1.2
		c-1.1-0.4-2.3-0.7-3.5-1c-1.2-0.2-2.3-0.4-3.2-0.4c-2.5,0-4.7,0.4-6.6,1.1c-2,0.7-3.6,1.8-5.1,3.2c-1.4,1.4-2.5,3.1-3.3,5
		s-1.1,4.1-1.1,6.6c0,2.2,0.4,4.2,1.1,6.1s1.9,3.5,3.3,4.8c1.4,1.4,3.1,2.4,5,3.1c1.9,0.7,4.1,1.1,6.5,1.1c1.4,0,2.7-0.1,4.1-0.4
		c1.4-0.3,2.5-0.7,3.5-1.2v-8.1h-8.1v-5.4h13.7L280.9,417.5L280.9,417.5z"/>
	<path class="st0" d="M290,421v-42.5h0.1l21.6,30.7l-2.3-0.5l21.6-30.2h0.1V421h-5.5v-30l0.4,2.8l-15.5,22h-0.1l-15.8-22l0.9-2.6
		V421H290z"/>
	<path class="st0" d="M341.4,379.8h26.8v5.3h-21.3v12.5h19v5.4h-19v12.7H369v5.3h-27.6V379.8z"/>
	<path class="st0" d="M412.8,422.3L381,390l1.6,0.4l0.1,30.6h-5.5v-42.5h0.3l31.5,32.4l-1.2-0.3l-0.1-30.9h5.5v42.5L412.8,422.3
		L412.8,422.3z"/>
	<path class="st0" d="M420.4,379.8h27.4v5.3h-11.1V421h-5.5v-35.9h-10.8V379.8z"/>
	<path class="st0" d="M447.9,421l18-42.9h0.3l18,42.9h-6.3l-13.5-34.3l3.9-2.6l-15,36.8H447.9z M458.4,405.4h15.3l1.8,4.8h-18.8
		L458.4,405.4z"/>
	<path class="st0" d="M484.2,379.8h27.4v5.3h-11.1V421h-5.5v-35.9h-10.8L484.2,379.8L484.2,379.8z"/>
	<path class="st0" d="M519,379.8h5.5V421H519V379.8z"/>
	<path class="st0" d="M532.4,400.4c0-2.9,0.5-5.5,1.6-8.1c1.1-2.5,2.6-4.8,4.5-6.8c1.9-2,4.2-3.5,6.7-4.6s5.2-1.6,8.2-1.6
		c2.8,0,5.5,0.5,8.1,1.6c2.5,1.1,4.8,2.6,6.8,4.6c2,2,3.5,4.2,4.6,6.8c1.1,2.5,1.7,5.3,1.7,8.1c0,2.9-0.5,5.6-1.7,8.1
		c-1.1,2.5-2.6,4.8-4.6,6.7s-4.2,3.4-6.7,4.5s-5.3,1.6-8.2,1.6c-2.9,0-5.7-0.5-8.2-1.6c-2.5-1.1-4.8-2.6-6.7-4.5
		c-1.9-1.9-3.5-4.1-4.5-6.7C533,406.2,532.4,403.4,532.4,400.4z M538.1,400.4c0,2.2,0.4,4.2,1.2,6.1c0.8,1.9,1.9,3.5,3.3,5
		c1.4,1.4,3.1,2.6,4.9,3.4s3.8,1.2,6,1.2s4.2-0.4,6-1.2s3.5-1.9,4.8-3.4c1.4-1.4,2.5-3.1,3.3-5c0.8-1.9,1.2-3.9,1.2-6.1
		c0-2.2-0.4-4.3-1.2-6.2s-1.9-3.6-3.3-5c-1.4-1.5-3-2.6-4.9-3.4s-3.9-1.2-6-1.2c-2.2,0-4.2,0.4-6.1,1.2c-1.9,0.8-3.5,2-4.9,3.4
		c-1.4,1.4-2.5,3.1-3.2,5C538.5,396.3,538.1,398.3,538.1,400.4z"/>
	<path class="st0" d="M618.1,422.3L586.2,390l1.6,0.4l0.1,30.6h-5.5v-42.5h0.3l31.5,32.4l-1.2-0.3l-0.1-30.9h5.5v42.5L618.1,422.3
		L618.1,422.3z"/>
</g>
<g>
	<path class="st0" d="M196.4,467.3c0,0.2,0.2,0.3,0.5,0.3c0.2,0,1.2-0.1,3-0.4s3.4-0.5,4.8-0.5c-1.6,0.4-3,0.9-4.2,1.3
		c-1.2,0.5-2.4,1-3.6,1.5s-2.1,0.9-2.6,1.1c-0.5,0.2-1,0.3-1.4,0.3c-1.2,0-1.9-0.8-1.9-2.4c0-4.1,1.1-7.1,3.1-8.8
		c0.9-0.7,2.2-1.5,4.1-2.4s4-1.8,6.4-2.7c2.4-0.8,5-1.6,7.9-2.2s5.7-0.9,8.5-0.9c2.9,0,5.5,0.4,7.9,1.2s4.4,2,6,3.5
		c1.6,1.5,2.9,3.3,3.7,5.5s1.3,4.6,1.3,7.3c0,4.1-1.2,8.1-3.6,12s-5.6,7.3-9.5,10.3c-4,3-8.4,5.3-13.4,7s-9.9,2.6-14.7,2.6
		c-0.9,0-1.6-0.1-2.1-0.3c-0.5-0.2-0.9-0.6-1.1-1.1s-0.3-1.4-0.3-2.5c0-1.4,0.1-2.5,0.3-3.4s0.6-1.9,1.1-3
		c3.5-7.8,9.6-17.6,18.4-29.4c-1.8,0.2-3.7,0.6-5.8,1.1c-2.1,0.5-4.1,1.1-6,1.8s-3.5,1.3-4.8,1.9C197,466.6,196.4,467,196.4,467.3z
		 M215.9,460.9c0,0,0.1,0.3,0.1,0.8c0.1,0.5,0.1,0.9,0.1,1.3c0,0.6-0.3,1.4-0.9,2.4c-0.6,1-1.7,2.8-3.4,5.4
		c-1.7,2.6-3.1,4.9-4.3,6.8c-1.2,2-2.6,4.5-4.2,7.5c-0.5,1-0.9,1.6-1.1,2c-0.2,0.3-0.5,0.9-0.9,1.7c-0.4,0.8-0.7,1.5-0.9,2
		c-0.2,0.6-0.3,1-0.3,1.3c0,0.6,0.4,1.1,1,1.3c0.7,0.3,1.7,0.4,3,0.4c3.3,0,6.8-0.6,10.6-1.8s7.2-2.9,10.5-5
		c3.3-2.1,5.9-4.6,7.8-7.3s2.9-5.5,2.9-8.5c0-3.4-1.2-6-3.7-7.8s-6.1-2.7-10.8-2.7C219.5,460.7,217.6,460.8,215.9,460.9z"/>
	<path class="st0" d="M247.4,489.2v0.9c0,1.4,0.4,2.6,1.1,3.4c0.7,0.8,1.6,1.2,2.8,1.2c1.2,0,2.4-0.3,3.7-0.8
		c1.3-0.6,2.6-1.3,3.8-2.2c1.3-0.9,2.8-2.2,4.6-3.7v2.2c-2.8,3.3-5.4,5.9-7.8,7.6c-2.4,1.8-4.9,2.6-7.4,2.6c-2.2,0-3.9-0.8-5.2-2.5
		s-1.9-4-1.9-6.9c0-2.6,0.6-4.9,1.8-7c1.2-2.1,3.1-4.3,5.9-6.6c1.9-1.6,3.7-2.8,5.5-3.6c1.8-0.8,3.5-1.2,4.9-1.2
		c1.1,0,2.1,0.3,2.7,0.8c0.7,0.5,1,1.3,1,2.4c0,1.5-0.6,3.1-1.7,4.6s-2.9,3-5.3,4.5C253.7,486.4,250.8,487.9,247.4,489.2z
		 M247.8,486.9c2.2-0.9,4.1-1.9,5.6-3.2s2.7-2.5,3.5-3.6s1.1-2,1.1-2.5c0-0.6-0.3-0.8-0.8-0.8c-0.4,0-1.1,0.3-2.1,0.8s-2,1.3-3,2.2
		c-1,0.9-1.9,2-2.7,3.2C248.5,484.1,248,485.4,247.8,486.9z"/>
	<path class="st0" d="M280.2,493c3.4-3,6.3-5.6,8.7-7.8c2.4-2.2,4.3-4,5.7-5.2s2.6-2.3,3.6-3.2c1-0.9,1.7-1.3,2-1.3
		c0.6,0,1.1,0.6,1.6,1.7s0.8,2.1,0.8,2.8c0,0.5-0.8,1.6-2.3,3.3s-2.7,3.1-3.5,4.1c-0.8,1-1.1,2.1-1.1,3.2c0,0.7,0.2,1.2,0.7,1.6
		s1,0.6,1.6,0.6c0.7,0,1.6-0.4,2.5-1.1c1-0.7,2.5-2,4.7-3.9v2.6c-2.1,2-4,3.7-5.8,5.2c-1.7,1.5-3.2,2.5-4.5,3.3s-2.4,1.1-3.2,1.1
		c-0.8,0-1.4-0.3-1.9-0.9c-0.5-0.6-0.8-1.3-0.8-2.1c0-0.8,0.1-1.7,0.4-2.5c0.3-0.9,0.7-1.9,1.4-3s1.4-2.6,2.4-4.2
		c1-1.6,1.9-3.2,2.8-4.5c-2.5,2-4.7,4-6.6,5.9c-1.9,1.9-3.5,3.5-4.7,4.9c-1.2,1.4-2.2,2.5-2.9,3.3c-1.4,1.5-2.6,2.3-3.8,2.3
		c-1.3,0-1.9-0.9-1.9-2.7c0-0.7,0.5-2,1.4-3.9c1-1.9,2.3-4.3,4.1-7.2c0.1-0.2,0.2-0.5,0.2-0.9c0-0.5-0.2-0.7-0.7-0.7
		c-0.5,0-1.3,0.5-2.3,1.5c-1,1-3,3.1-5.9,6.4c-0.8,0.9-1.7,2.1-2.7,3.5s-1.7,2.4-2.2,2.9s-0.9,0.7-1.3,0.7c-0.9,0-1.7-0.8-2.5-2.3
		c-0.8-1.6-1.1-3.4-1.1-5.5c0-1.5,0.2-2.8,0.8-3.9s1.3-2.5,2.3-4.1c1.6-2.4,3-4.1,4-5.1s2.1-1.5,3.3-1.5c0.7,0,1.3,0.1,1.8,0.4
		c0.5,0.3,0.7,0.7,0.7,1.1c0,0.5-0.5,1.4-1.3,2.5s-2,2.4-3.4,3.6c-0.7,0.7-1.4,1.6-2.1,2.6s-1,1.8-1,2.2c0,0.7,0.3,1,0.8,1
		c0.4,0,1.5-0.9,3.1-2.6c1.7-1.7,3.5-3.6,5.5-5.6c2-2,3.9-3.7,5.6-5s3.2-2,4.4-2c0.7,0,1.3,0.3,1.8,0.8c0.5,0.5,0.7,1.2,0.7,2
		c0,0.5-0.4,1.5-1.1,2.9s-1.8,3.1-3.2,5.2C284.2,487.5,282.4,490,280.2,493z"/>
	<path class="st0" d="M328.4,487.9v2.5c-1.6,1.5-2.9,2.4-3.9,2.9c-1,0.5-2.4,0.7-4.2,0.6c-3.2,3.8-6,5.6-8.4,5.6
		c-1.4,0-2.6-0.5-3.7-1.4c-1.1-0.9-2-2.1-2.7-3.7s-1-3.3-1-5.2c0-1.6,0.5-3.3,1.6-5.2c1-1.9,2.4-3.7,4-5.3s3.4-3,5.3-4
		c1.9-1,3.6-1.5,5.2-1.5c1.1,0,2,0.2,2.7,0.5s1,0.9,1,1.5c0,0.5-0.3,1-0.8,1.7c0.9,0.2,1.6,0.5,1.9,1s0.5,1.3,0.5,2.5
		c0,1.2-0.3,2.6-0.8,4.4c-0.5,1.8-1.3,3.5-2.2,5l0.7,0.7h0.5c0.4,0,0.8-0.1,1.2-0.3c0.4-0.2,0.8-0.4,1.1-0.7
		C326.6,489.2,327.3,488.7,328.4,487.9z M320.8,478.2c-2,1.2-3.8,2.3-5.2,3.3c-1.4,1-2.7,2-3.7,3s-1.7,2-2,3.1
		c-0.6,2.7-0.9,4.2-0.9,4.4c0,1.6,1.1,2.4,3.4,2.4c1,0,2.8-0.9,5.3-2.7c-0.4-1.1-0.6-2.2-0.6-3.3c0-1.5,0.3-3.1,1-4.7
		S319.6,480.3,320.8,478.2z"/>
	<path class="st0" d="M362.2,468.9h1.6c1.3-2.3,2.5-4,3.5-4.9c1-1,2.2-1.5,3.6-1.5s2,0.3,2,0.9c0,0.3-0.5,1.1-1.6,2.4
		c-1,1.3-1.8,2.4-2.4,3.3c0.8,0.1,1.6,0.2,2.2,0.3s1.1,0.1,1.5,0.2c-1.4,2.6-3.1,5.2-5.2,8c-0.7,0-1.3-0.1-1.7-0.1s-0.9-0.1-1.4-0.1
		c-0.5,0-1.1-0.1-1.7-0.1c-1.3,2.1-2.4,4-3.3,5.7c-0.9,1.7-1.6,3.2-2,4.6c-0.5,1.4-0.7,2.7-0.7,4c0,1.7,0.7,2.5,2,2.5
		c0.9,0,2.1-0.5,3.6-1.5c1.5-1,3.5-2.5,6-4.6v2.5c-6.6,7.1-11.5,10.7-14.6,10.7c-1.1,0-2-0.4-2.6-1.3c-0.7-0.9-1-2-1-3.3
		c0-0.9,0.2-2,0.6-3.2c0.4-1.2,1.1-3.1,2-5.6c-0.3,0.3-0.7,0.6-1,0.9c-0.3,0.3-0.6,0.5-0.8,0.8c-0.3,0.2-0.5,0.5-0.8,0.7
		c-0.3,0.3-0.6,0.5-0.9,0.8v-2.5c2.6-2.1,5.7-5.9,9.3-11.3c-0.4,0-0.7,0-1,0c-0.3,0-0.7,0-1.1,0c-1.4,0-2.5,0.1-3.2,0.3
		c-0.3,0.1-0.6,0.1-0.8,0.2c-0.3,0.1-0.4,0.1-0.5,0.1s-0.1-0.1-0.1-0.2c0-0.8,0.5-2,1.5-3.6c0.8-1.4,1.6-2.4,2.3-3s1.6-1.1,2.6-1.3
		C358.9,469,360.3,468.9,362.2,468.9z"/>
	<path class="st0" d="M391.6,487.9v2.5c-1.6,1.5-2.9,2.4-3.9,2.9c-1,0.5-2.4,0.7-4.2,0.6c-3.2,3.8-6,5.6-8.4,5.6
		c-1.4,0-2.6-0.5-3.7-1.4c-1.1-0.9-2-2.1-2.7-3.7s-1-3.3-1-5.2c0-1.6,0.5-3.3,1.6-5.2c1-1.9,2.4-3.7,4-5.3s3.4-3,5.3-4
		c1.9-1,3.6-1.5,5.2-1.5c1.1,0,2,0.2,2.7,0.5s1,0.9,1,1.5c0,0.5-0.3,1-0.8,1.7c0.9,0.2,1.6,0.5,1.9,1s0.5,1.3,0.5,2.5
		c0,1.2-0.3,2.6-0.8,4.4c-0.5,1.8-1.3,3.5-2.2,5l0.7,0.7h0.5c0.4,0,0.8-0.1,1.2-0.3c0.4-0.2,0.8-0.4,1.1-0.7
		C389.9,489.2,390.6,488.7,391.6,487.9z M384.1,478.2c-2,1.2-3.8,2.3-5.2,3.3c-1.4,1-2.7,2-3.7,3s-1.7,2-2,3.1
		c-0.6,2.7-0.9,4.2-0.9,4.4c0,1.6,1.1,2.4,3.4,2.4c1,0,2.8-0.9,5.3-2.7c-0.4-1.1-0.6-2.2-0.6-3.3c0-1.5,0.3-3.1,1-4.7
		S382.9,480.3,384.1,478.2z"/>
	<path class="st0" d="M415.1,487.9v2.5c-1.6,1.5-2.9,2.4-3.9,2.9c-1,0.5-2.4,0.7-4.2,0.6c-3.2,3.8-6,5.6-8.4,5.6
		c-1.4,0-2.6-0.5-3.7-1.4c-1.1-0.9-2-2.1-2.7-3.7s-1-3.3-1-5.2c0-1.6,0.5-3.3,1.6-5.2s2.4-3.7,4-5.3s3.4-3,5.3-4
		c1.9-1,3.6-1.5,5.2-1.5c1.1,0,2,0.2,2.7,0.5s1,0.9,1,1.5c0,0.5-0.3,1-0.8,1.7c0.9,0.2,1.6,0.5,1.9,1s0.5,1.3,0.5,2.5
		c0,1.2-0.3,2.6-0.8,4.4c-0.5,1.8-1.3,3.5-2.2,5l0.7,0.7h0.5c0.4,0,0.8-0.1,1.2-0.3c0.4-0.2,0.8-0.4,1.1-0.7
		C413.4,489.2,414,488.7,415.1,487.9z M407.6,478.2c-2,1.2-3.8,2.3-5.2,3.3c-1.4,1-2.7,2-3.7,3s-1.7,2-2,3.1
		c-0.6,2.7-0.9,4.2-0.9,4.4c0,1.6,1.1,2.4,3.4,2.4c1,0,2.8-0.9,5.3-2.7c-0.4-1.1-0.6-2.2-0.6-3.3c0-1.5,0.3-3.1,1-4.7
		C405.4,482.1,406.3,480.3,407.6,478.2z"/>
	<path class="st0" d="M432.5,487.5v2.7c-5.1,6.8-9.2,10.1-12.5,10.1c-1.7,0-3.1-1-4.1-2.8c-1-1.9-1.5-4.4-1.5-7.5
		c0-2.5,0.6-5.5,1.8-8.9s2.7-6.9,4.7-10.4c2-3.5,4-6.6,6.1-9.2s4.1-4.5,5.9-5.5c0.7-0.4,1.3-0.7,1.7-0.7c0.5,0,0.9,0.2,1,0.7
		c0.2,0.5,0.3,1.2,0.3,2.3c0,3.4-1.4,7.6-4.1,12.5c-2.8,4.9-6.6,10-11.5,15.1c-0.2,1.3-0.4,2.2-0.4,2.9c0,1.6,0.3,2.8,1,3.8
		s1.6,1.5,2.8,1.5c0.6,0,1.3-0.2,2-0.7c0.7-0.5,1.5-1.1,2.2-1.8C428.8,491,430.3,489.6,432.5,487.5z M421.6,480.9
		c1.3-1.2,2.5-2.7,3.7-4.2s2.3-3.3,3.4-5.1c1-1.8,1.9-3.4,2.5-4.9s0.9-2.5,0.9-3.3c0-0.6-0.2-0.8-0.6-0.8c-0.1,0-0.4,0.1-0.8,0.4
		c-1.5,1.2-3.2,3.6-5,7.2C423.7,473.7,422.4,477.3,421.6,480.9z"/>
</g>
<g>
	<g>
		<path class="st0" d="M312.6,121.9c15.4-5.1,30.8-10.1,46.2-15.3c7.9-2.7,14.4-1.2,20.1,4.8c3.6,3.8,7.4,7.3,11.1,11
			c0.6,0.6,1.1,1.2,1.8,2c-4.7,1.5-9.1,2.9-13.6,4.3c0.5,1.5,0.9,2.8,1.4,4.4c0.9-0.2,1.5-0.3,2-0.5c10.3-3.2,20.6-6.4,31-9.6
			c7.8-2.4,14.4-0.3,19.4,6.2c2.3,2.9,4.5,5.9,6.8,8.9c3.7,4.8,7.4,9.7,11.2,14.6c1.4-1.1,2.5-1.9,3.6-2.8c-0.3-0.5-0.4-0.8-0.6-1
			c-5.9-7.7-11.7-15.4-17.6-23c-5.9-7.6-14.6-10.3-23.7-7.5c-4.1,1.2-8.2,2.7-12.4,3.8c-1,0.3-2.7-0.2-3.5-0.9
			c-4.9-4.6-9.6-9.3-14.4-14c-6.6-6.5-14.3-8.3-23-5.3c-11.9,4-23.9,7.9-35.8,11.9c-4.8,1.6-9.7,3.2-14.7,4.8c0.6,1.6,1,3,1.5,4.4
			C310.5,122.6,311.5,122.2,312.6,121.9z"/>
		<path class="st0" d="M226.9,315c18.3-50.6,52.7-85.1,103.1-103.5c2-0.7,3.2-0.5,4.6,1c8.9,9.7,17.9,19.4,26.9,29.1
			c0.6,0.6,1,1.4,1.5,2.1c-41.1,14.5-70,40.5-86.8,78.5h5.1c6.6-14.5,15.6-27.7,27.1-39.3c16.4-16.6,35.8-28.2,58.6-35.2
			c7.5,11.3,15,22.6,22.6,34.1c-20.5,9-35.6,22.3-45.7,40.3h5.5C359,306,373,294,391.8,286.1c4.4,9.3,8.9,18.2,12.8,27.4
			c1.2,2.9,2.4,5.8,3.5,8.7h5.1c-31.9-81.1-88.3-139.1-169.6-174.5c4.3-1.1,8.7-3,12.9-2.6c7.1,0.6,14.2,2.3,21.1,4.1
			c76.1,19.7,133.2,64.1,171.2,133c1.3,2.4,2.6,4.9,4,7.5c1.4-0.7,2.7-1.3,4.4-2.2c-40.8-77.8-103.7-126.2-188.8-145.8
			c21.9-4,43.7-3,65.3,1.4c50,10.2,89.6,36.7,119.4,78.1c1.4-1,2.5-1.8,4.2-3.1c-7-8.2-13.3-16.4-20.5-23.8
			c-7.2-7.4-15-14.3-23.2-20.5c-8.1-6.1-16.9-11.7-25.9-16.4c-9.1-4.8-18.7-8.8-28.4-12.3c-9.6-3.4-19.6-5.5-28.8-8.1
			c16.5,0.8,33.4,3.3,50.1,7.4c18.7,4.6,36.5,11.8,54,19.6c6.4,2.8,12.8,5.5,19.4,8.3c0.6-1.6,1.2-2.9,1.8-4.3
			c-9.3-4-18.4-7.8-27.4-11.8c-37.7-16.9-77.1-25.3-118.4-23.9c-4.6,0.1-9.1,0.4-14,0.7l0,0.2l-11,1c-6.9,1.1-13.7,2.3-20.6,3.4
			l-6.7,1.4c-0.5,0.3-1.1,0.6-2,0.8c-7.6,1.8-15.2,4.2-22.8,6.3l-10.8,4.4l-0.1-0.2c-0.9,0.5-1.9,0.9-3,1.2
			c-4.2,1.2-8.3,3.2-12.1,5.3c-1.5,0.8-2.9,1.2-4.3,1.3l-7.1,3.9c0,0,0,0,0,0c-8.6,5.2-17.1,10.3-25.7,15.5c0.7,1,1,1.6,1.4,2.2
			c0.4,0.6,0.9,1.2,1.4,1.9c1.1-0.7,2.1-1.3,3.1-2c17.9-11.8,37-21.3,57.3-28.2c1.6-0.5,3.8-0.5,5.3,0.1c8.9,3.8,17.8,7.9,26.6,12
			c0.8,0.3,1.4,0.8,2.7,1.6c-19.5,5.5-37.3,13.4-53.9,24c-16.6,10.6-31.3,23.4-44.3,38.6c1.2,1.1,2.3,2,3.6,3
			c1.2-1.4,2.3-2.5,3.3-3.7c26.1-28.8,57.9-48.3,95.5-58c1.3-0.3,3-0.1,4.1,0.5c4,2.1,7.9,4.5,11.7,6.9c4.3,2.7,8.5,5.6,13,8.5
			c-67.2,17.1-110.9,58.4-132,124.4c2,0.6,3.3,1,4.8,1.5c0.3-1,0.6-1.9,0.9-2.8c2.2-6.2,4-12.6,6.7-18.6
			c24.2-54,65.3-87.2,122.9-99.8c1-0.2,2.4-0.3,3.1,0.2c7.1,5.5,14.2,11.2,21.7,17.2c-3.9,1.5-7.1,2.7-10.2,4.1
			c-51.6,22-82.7,60.8-99.5,111.4h5.3C225.2,319.8,226.1,317.4,226.9,315z"/>
	</g>
	<g>
		<path class="st0" d="M473.3,334H153.7V23h319.7V334z M157.6,330h311.8V27H157.6V330z"/>
	</g>
	<g>
		<path class="st0" d="M265.5,51.7c0,3.7,0,7,0,10.7c1.5,0,2.9,0,4.3,0c4.7,0.2,7.1,4.5,4.7,8.6c-2.8,4.9-6.8,8-12.8,7.4
			c-2.2-0.2-4.5,0-6.6,0c-0.2,0.2-0.2,0.3-0.3,0.4c-0.9,2.4,0,4.1,1.8,5.9c6.8,7.2,10.1,16,10.4,25.8c0.1,1.6-0.2,3-2,3.6
			c-2.1,0.7-3.7-0.6-3.8-3c-0.2-5.1-1-10-3.5-14.5c-1.8-3.2-4.2-6.1-6.4-9.1c-0.6-0.9-1.3-1.1-2.3-0.5c-0.4,0.3-1,0.5-1.4,0.5
			c-2.8-0.2-3.5,1.8-4.3,3.9c-2.4,5.9-4.7,7.4-11.1,7.4c-3.9,0-7.7,0-11.6,0c-4.6,0-7.8-2.1-9.5-6.4c-0.1-0.1-0.1-0.2-0.1-0.3
			c-0.4-4.2-4-4.3-6.9-5.3c-0.4-0.1-1.1,0.3-1.4,0.7c-5.7,5.8-9,12.7-9.7,20.8c-0.1,0.9-0.1,1.8-0.2,2.7c-0.2,2.2-1.2,3.3-3,3.2
			c-1.8-0.1-2.8-1.2-2.8-3.4c0.1-7.7,2.3-14.8,6.5-21.2c1.4-2.1,3-4.1,4.7-5.8c1.2-1.2,1.7-2.3,1.1-4c-0.2-0.4-0.2-0.9-0.3-1.5
			c-2.7,0-5.4,0-8.1,0c-5.6,0.1-9.3-2.7-12.1-8.6c-1.6-3.2,0.9-7,4.4-7.4c1.6-0.2,3.2,0,4.9,0c0-3.6,0-7.1,0-10.7
			c-1.4,0-2.9,0-4.4,0c-3.7,0-7.3,0-11,0c-2.6,0-3.9-1-3.9-3c0-1.9,1.3-2.8,3.8-2.8c4.5,0,9,0,13.5,0c0.6,0,1.3,0,1.9,0
			c0.5-2.5-0.7-6.1,3.2-6c3.6,0.1,2.4,3.5,2.9,6c2.6,0,5.1,0,7.7,0c2.8,0,5.5,0,8.3,0c2.1,0,3.4,1.2,3.4,2.9c0,1.7-1.3,2.9-3.4,2.9
			c-4.9,0-9.9,0-14.9,0c-0.3,0-0.6,0-1.1,0.1c0,3.5,0,6.9,0,10.5c1.8,0,3.6,0.1,5.4,0c0.4,0,0.9-0.6,1.2-1.1c2-2.7,4.7-4.1,8.1-4.1
			c6.1,0,12.1,0,18.1,0c2.2,0,3.3,1,3.3,2.9c0,1.9-1.1,2.9-3.3,2.9c-5.9,0-11.7,0-17.6,0c-2.3,0-3.9,0.8-4.5,3.1
			c-0.6,1.8-1.9,2.2-3.6,2.2c-4.8,0-9.6,0-14.5,0c-0.7,0-1.4,0-2.1,0c0.6,2.7,2.8,4.4,5.4,4.5c3.6,0.1,7.2,0,10.8,0
			c3,0,3.9,0.9,3.9,3.9c0,0.6,0,1.3,0,1.9c0.2,2.3,1.6,3.8,3.8,3.8c12.1,0,24.2,0,36.3,0c2.4,0,3.7-1.5,3.8-3.9
			c0.2-5.6,0.3-5.7,5.9-5.7c2.7,0,5.4-0.1,8.1,0c3.1,0.1,5-1.4,6.5-4.4c-0.8-0.1-1.5-0.1-2.1-0.1c-4.8,0-9.6,0-14.5,0
			c-2,0-3.4-0.6-4.1-2.7c-0.7-2.2-2.6-2.6-4.7-2.7c-0.9,0-2.1,0-2.5-0.5c-0.6-0.9-1.2-2.2-0.9-3.2c0.2-0.8,1.6-1.8,2.5-1.9
			c4.1-0.4,7.6,0.8,10.1,4.3c0.3,0.4,0.8,0.8,1.2,0.8c1.7,0.1,3.4,0,5.2,0c0-3.7,0-7,0-10.7c-1.7,0-3.2,0-4.8,0c-3.7,0-7.5,0-11.2,0
			c-2.1,0-3.4-1.2-3.4-2.9c0-1.7,1.3-2.8,3.4-2.8c5.3,0,10.5,0,16.1,0c0-1.1,0-2,0-2.9c0.1-1.8,1.1-3.1,2.7-3.1
			c1.6-0.1,2.9,1.2,3,3.1c0.1,0.9,0,1.8,0,2.9c0.8,0,1.5,0.1,2.1,0.1c4.6,0,9.3,0,13.9,0c2.2,0,3.4,1,3.4,2.8c0,1.8-1.2,2.9-3.3,2.9
			C276.2,51.7,270.9,51.7,265.5,51.7z M215.7,88.1c0.9,4.2,1.9,5.1,5.9,5.1c3.8,0,7.6,0,11.4,0c3.3,0,4.9-1.6,5.1-5.1
			C230.6,88.1,223.2,88.1,215.7,88.1z"/>
		<path class="st0" d="M242.5,111.1c-1.6,0-2.8-1.2-2.8-2.8c0-1.6,1.2-2.9,2.7-2.9c1.6,0,2.9,1.3,2.9,3
			C245.3,109.9,244.1,111.1,242.5,111.1z"/>
		<path class="st0" d="M213.9,108.3c0,1.6-1.2,2.8-2.8,2.8c-1.6,0-2.8-1.2-2.8-2.8c0-1.7,1.3-3,2.9-2.9
			C212.8,105.4,214,106.7,213.9,108.3z"/>
		<path class="st0" d="M247.9,115.5c1.6,0,2.8,1.2,2.8,2.8c0.1,1.7-1.2,2.9-2.9,2.9c-1.6,0-2.8-1.2-2.7-2.8
			C245.1,116.7,246.3,115.5,247.9,115.5z"/>
		<path class="st0" d="M205.7,121.2c-1.6,0-2.8-1.2-2.8-2.8c0-1.7,1.3-2.9,2.9-2.9c1.6,0.1,2.7,1.4,2.6,3
			C208.5,120.1,207.3,121.2,205.7,121.2z"/>
		<path class="st0" d="M203.2,128.4c0,1.6-1.1,2.9-2.7,2.9c-1.6,0.1-2.9-1.2-2.9-2.9c0-1.6,1.2-2.8,2.8-2.8
			C202,125.6,203.2,126.8,203.2,128.4z"/>
		<path class="st0" d="M229.6,108.2c0,1.7-1.1,2.8-2.7,2.8c-1.6,0-2.8-1.1-2.8-2.8c0-1.7,1.1-3,2.8-3
			C228.4,105.4,229.6,106.6,229.6,108.2z"/>
		<path class="st0" d="M229.6,119.8c0,1.6-1.2,2.8-2.8,2.8c-1.6,0-2.8-1.3-2.7-3.1c0.1-1.7,1.2-2.7,2.9-2.7
			C228.6,116.9,229.6,118.1,229.6,119.8z"/>
		<path class="st0" d="M253.3,125.6c1.6,0,2.8,1.2,2.8,2.8c0,1.7-1.3,3-2.9,2.9c-1.6-0.1-2.7-1.3-2.7-2.9
			C250.5,126.8,251.7,125.6,253.3,125.6z"/>
		<path class="st0" d="M229.6,131.2c0,1.7-1.1,2.8-2.8,2.8c-1.7,0-2.8-1.2-2.7-3c0.1-1.7,1.2-2.7,2.9-2.7
			C228.6,128.4,229.6,129.5,229.6,131.2z"/>
	</g>
</g>
</svg>
